<mxfile host="app.diagrams.net" modified="2024-07-23T13:33:23.002Z" agent="Mozilla/5.0 (Windows NT 10.0; Win64; x64) AppleWebKit/537.36 (KHTML, like Gecko) Chrome/126.0.0.0 Safari/537.36" etag="W9NkXR_nelZXIcdUIuGQ" version="24.7.1" type="github">
  <diagram name="Page-1" id="waQnilAS8FPj0zNcI7NH">
    <mxGraphModel dx="803" dy="446" grid="1" gridSize="10" guides="1" tooltips="1" connect="1" arrows="1" fold="1" page="1" pageScale="1" pageWidth="850" pageHeight="1100" math="0" shadow="0">
      <root>
        <mxCell id="0" />
        <mxCell id="1" parent="0" />
        <mxCell id="_BRfwphhFbcrgB1m2CbH-3" style="edgeStyle=orthogonalEdgeStyle;rounded=0;orthogonalLoop=1;jettySize=auto;html=1;exitX=0.5;exitY=0.5;exitDx=0;exitDy=0;exitPerimeter=0;" edge="1" parent="1" source="_BRfwphhFbcrgB1m2CbH-1">
          <mxGeometry relative="1" as="geometry">
            <mxPoint x="170" y="170" as="targetPoint" />
          </mxGeometry>
        </mxCell>
        <mxCell id="_BRfwphhFbcrgB1m2CbH-1" value="Actor" style="shape=umlActor;verticalLabelPosition=bottom;verticalAlign=top;html=1;outlineConnect=0;fillColor=#ffe6cc;strokeColor=#d79b00;" vertex="1" parent="1">
          <mxGeometry x="70" y="140" width="30" height="60" as="geometry" />
        </mxCell>
        <mxCell id="_BRfwphhFbcrgB1m2CbH-2" value="" style="whiteSpace=wrap;html=1;aspect=fixed;" vertex="1" parent="1">
          <mxGeometry x="170" y="80" width="130" height="130" as="geometry" />
        </mxCell>
        <mxCell id="_BRfwphhFbcrgB1m2CbH-5" value="user local env" style="text;html=1;align=center;verticalAlign=middle;whiteSpace=wrap;rounded=0;" vertex="1" parent="1">
          <mxGeometry x="170" y="90" width="100" height="30" as="geometry" />
        </mxCell>
        <mxCell id="_BRfwphhFbcrgB1m2CbH-6" value="" style="whiteSpace=wrap;html=1;aspect=fixed;" vertex="1" parent="1">
          <mxGeometry x="310" y="30" width="510" height="510" as="geometry" />
        </mxCell>
        <mxCell id="_BRfwphhFbcrgB1m2CbH-7" value="" style="dashed=0;outlineConnect=0;html=1;align=center;labelPosition=center;verticalLabelPosition=bottom;verticalAlign=top;shape=mxgraph.weblogos.oracle;fillColor=#FF0000;strokeColor=none" vertex="1" parent="1">
          <mxGeometry x="330" y="40" width="90" height="23" as="geometry" />
        </mxCell>
        <mxCell id="_BRfwphhFbcrgB1m2CbH-9" value="" style="rounded=1;whiteSpace=wrap;html=1;" vertex="1" parent="1">
          <mxGeometry x="330" y="80" width="480" height="450" as="geometry" />
        </mxCell>
        <mxCell id="_BRfwphhFbcrgB1m2CbH-12" value="vcn" style="text;html=1;align=center;verticalAlign=middle;whiteSpace=wrap;rounded=0;" vertex="1" parent="1">
          <mxGeometry x="345" y="100" width="60" height="30" as="geometry" />
        </mxCell>
        <mxCell id="_BRfwphhFbcrgB1m2CbH-13" value="" style="rounded=0;whiteSpace=wrap;html=1;" vertex="1" parent="1">
          <mxGeometry x="360" y="140" width="210" height="350" as="geometry" />
        </mxCell>
        <mxCell id="_BRfwphhFbcrgB1m2CbH-14" value="" style="rounded=0;whiteSpace=wrap;html=1;" vertex="1" parent="1">
          <mxGeometry x="580" y="140" width="190" height="160" as="geometry" />
        </mxCell>
        <mxCell id="_BRfwphhFbcrgB1m2CbH-15" value="" style="rounded=0;whiteSpace=wrap;html=1;" vertex="1" parent="1">
          <mxGeometry x="580" y="310" width="190" height="180" as="geometry" />
        </mxCell>
      </root>
    </mxGraphModel>
  </diagram>
</mxfile>
